<?xml version="1.0" standalone="no"?><!DOCTYPE svg PUBLIC "-//W3C//DTD SVG 1.1//EN" "http://www.w3.org/Graphics/SVG/1.1/DTD/svg11.dtd"><svg t="1743990788236" class="icon" viewBox="0 0 1024 1024" version="1.1" xmlns="http://www.w3.org/2000/svg" p-id="1486" xmlns:xlink="http://www.w3.org/1999/xlink" width="200" height="200"><path d="M605.09682 0a47.82 47.82 0 0 1 46.644 48.896v341.146h325.632a47.82 47.82 0 0 1 46.592 48.896v536.166A47.718 47.718 0 0 1 977.37282 1024H419.44582a47.82 47.82 0 0 1-46.643-48.896V633.958H46.70982A47.82 47.82 0 0 1 0.01582 585.062V48.896A47.718 47.718 0 0 1 46.70982 0h558.387z m122.368 532.838h-35.328l1.741 71.066H561.27082v188.211h35.277v-22.22h97.28V900.71h33.638V769.894h100.148v22.221h35.328V603.904H727.46482v-71.066z m-34.15 107.47v93.183h-96.768v-93.184h96.768z m134.298 0v93.183H727.46482v-93.184h100.148z m-237.261-67.79V61.44H61.45582v511.078H590.35082zM303.01682 163.635l-102.45 278.58h45.567l24.986-71.68h113.92l25.037 71.68h43.827l-103.066-278.58h-47.82z m-22.22 170.547l44.39-126.208 47.258 126.208h-91.648z" p-id="1487"></path></svg>